<?xml version="1.0" encoding="utf-8"?><!DOCTYPE svg PUBLIC "-//W3C//DTD SVG 1.1//EN" "http://www.w3.org/Graphics/SVG/1.1/DTD/svg11.dtd"><svg viewBox="0 0 1000 1000" xmlns="http://www.w3.org/2000/svg" xmlns:xlink="http://www.w3.org/1999/xlink"><style>:root>svg{display:none}:root>svg:target{display:block}</style><svg viewBox="0 0 22 9" id="arrow" xmlns="http://www.w3.org/2000/svg"><path d="M535.3 654.472h16.948l-.1 2.857a.292.292 0 0 0 0 .41l.172.172a.28.28 0 0 0 .2.086.285.285 0 0 0 .2-.084l4.193-4.211a.292.292 0 0 0 .087-.202.283.283 0 0 0-.084-.2l-4.193-4.213a.289.289 0 0 0-.407 0l-.172.173a.287.287 0 0 0-.084.2.278.278 0 0 0 .084.2l.113 2.865h-16.965a.3.3 0 0 0-.292.295v1.37a.292.292 0 0 0 .3.282Z" transform="translate(-535 -649)" style="fill:#fff;fill-rule:evenodd"/></svg><svg viewBox="0 0 22 9" id="arrow-dark" xmlns="http://www.w3.org/2000/svg"><path d="M603.3 2616.47h16.948l-.1 2.86a.279.279 0 0 0-.084.2.3.3 0 0 0 .084.21l.172.17a.276.276 0 0 0 .408 0l4.192-4.21a.283.283 0 0 0 .084-.2.307.307 0 0 0-.084-.21l-4.192-4.21a.3.3 0 0 0-.408 0l-.172.17a.3.3 0 0 0-.084.21.3.3 0 0 0 .084.2l.113 2.86h-16.969a.3.3 0 0 0-.292.3v1.37a.288.288 0 0 0 .3.28Z" transform="translate(-603 -2611)" style="fill:#436372;fill-rule:evenodd"/></svg><svg viewBox="0 0 6.1 10.97" id="arrow-viewall" xmlns="http://www.w3.org/2000/svg"><path d="M1539.33 4295.69a.53.53 0 0 1-.41-.19.6.6 0 0 1-.15-.4.631.631 0 0 1 .17-.43l4.55-4.47-4.55-4.48a.607.607 0 0 1-.17-.42.629.629 0 0 1 .15-.41.559.559 0 0 1 .8-.02l4.98 4.9.01.01a.657.657 0 0 1 .12.17.7.7 0 0 1 .05.25.742.742 0 0 1-.05.25.61.61 0 0 1-.12.16c0 .01-.01.01-.01.02l-4.98 4.9a.589.589 0 0 1-.39.16Z" transform="translate(-1538.78 -4284.72)" style="fill:#262626;fill-rule:evenodd"/></svg><svg viewBox="0 0 511.999 511.999" xml:space="preserve" id="author" xmlns="http://www.w3.org/2000/svg"><path fill="#222933" d="m421.578 190.264-99.847-99.847a6.241 6.241 0 0 0-8.829 0L82.824 320.495a6.241 6.241 0 0 0 0 8.829l99.847 99.847a6.241 6.241 0 0 0 8.829 0l230.078-230.078a6.241 6.241 0 0 0 0-8.829zM506.511 87.672 424.323 5.484c-7.308-7.31-19.175-7.315-26.488 0L348.219 55.1a6.241 6.241 0 0 0 0 8.829l99.847 99.847a6.245 6.245 0 0 0 8.829 0l49.616-49.616c7.315-7.313 7.315-19.173 0-26.488z"/><path fill="#222933" d="M508.133 491.11c-1.054-9.556-9.489-16.599-19.104-16.599H111.633l36.058-15.163c4.088-1.719 5.131-7.034 1.994-10.17l-86.854-86.854c-3.137-3.135-8.451-2.094-10.17 1.994-.437 1.041-50.609 120.342-51.034 121.389-5.815 13.208 4.855 27.01 18.107 26.263H489.52c11.046 0 19.859-9.562 18.613-20.86z"/></svg><svg viewBox="0 0 18.94 16.969" id="cart" xmlns="http://www.w3.org/2000/svg"><path d="M1721.53 85.978a2.073 2.073 0 1 1 0-4.147 2.056 2.056 0 0 1 1.46.6 2.03 2.03 0 0 1 .61 1.466 2.071 2.071 0 0 1-2.07 2.081Zm0-2.963a.889.889 0 1 0 .34 1.71.9.9 0 0 0 .55-.824.92.92 0 0 0-.26-.629.9.9 0 0 0-.63-.257Zm8.39 2.963a2.045 2.045 0 0 1-1.46-.607 2.068 2.068 0 0 1 1.46-3.54 1.953 1.953 0 0 1 1.47.6 2.085 2.085 0 0 1-.67 3.383 2.093 2.093 0 0 1-.8.164Zm0-2.963a.978.978 0 0 0-.82.548.887.887 0 0 0 1.16 1.161.891.891 0 0 0 .29-1.452.9.9 0 0 0-.63-.257Zm-11.27.164a.562.562 0 0 1-.25-.056.59.59 0 0 1-.29-.787 3.686 3.686 0 0 1 3.05-2.151l-1.05-5.391a.591.591 0 1 1 1.16-.228l1.09 5.578h9.43l1.8-6.771h-13.3a4.346 4.346 0 0 1-4.28-3.693.587.587 0 0 1 .49-.673.6.6 0 0 1 .68.5 3.159 3.159 0 0 0 3.11 2.682h14.07a.582.582 0 0 1 .47.232.594.594 0 0 1 .11.513l-2.13 7.956a.59.59 0 0 1-.57.44h-10.36a.03.03 0 0 0-.02 0 2.66 2.66 0 0 0-2.68 1.51.586.586 0 0 1-.53.338Z" transform="translate(-1716 -69)" style="fill:#243f4d;fill-rule:evenodd"/></svg><svg viewBox="0 0 1000 1000" xml:space="preserve" id="date" xmlns="http://www.w3.org/2000/svg"><g fill="#222933"><path d="M859.4 75.3h-98.1v-33c0-17.6-14.6-32.4-32.7-32.4-18.1.1-32.6 14.6-32.6 32.5v33H304v-33c0-17.6-14.6-32.4-32.7-32.4-18.2 0-32.7 14.5-32.7 32.4v33h-98.1c-53.8 0-97.9 43.8-97.9 97.9v718.9c0 53.8 43.8 97.9 97.9 97.9h718.9c53.8 0 97.9-43.8 97.9-97.9v-719c0-53.8-43.8-97.9-97.9-97.9zM892 859.2c0 36.2-29.3 65.5-65.5 65.5h-653c-36.2 0-65.5-29.3-65.5-65.5V369.3h784v489.9zm0-555.2H108v-97.8c0-36.2 29.3-65.5 65.5-65.5h65.2v33c0 17.6 14.6 32.4 32.7 32.4 18.2 0 32.7-14.5 32.7-32.4v-33h392v33c0 17.6 14.6 32.4 32.7 32.4 18.2 0 32.7-14.5 32.7-32.4v-33h65.2c36.2 0 65.5 29.3 65.5 65.5V304z"/><path d="M663.3 467.3H794V598H663.3V467.3zM663.3 696H794v130.7H663.3V696zM434.7 696h130.7v130.7H434.7V696zM434.7 467.3h130.7V598H434.7V467.3zM206 696h130.7v130.7H206V696zM206 467.3h130.7V598H206V467.3z"/></g></svg><svg viewBox="0 0 53.75 36.44" id="delivery" xmlns="http://www.w3.org/2000/svg"><path d="M812.816 1025.33h-6.126a.79.79 0 0 0 0 1.58h6.126a.79.79 0 0 0 0-1.58Zm.524 11.01h-5.6a.785.785 0 1 0 0 1.57h5.6a.785.785 0 1 0 0-1.57Zm-2.094-4.72H804.6a.79.79 0 0 0 0 1.58h6.65a.79.79 0 0 0-.004-1.58Zm0 11.01h-.646a.785.785 0 1 0 0 1.57h.644a.785.785 0 1 0 .002-1.57Zm-3.263 0H804.6a.785.785 0 1 0 0 1.57h3.387a.785.785 0 1 0-.004-1.57Zm36.86-19.86h-6.657v-1.42a.784.784 0 0 0-.786-.78h-12.175a.785.785 0 1 0 0 1.57h11.39v17.22a.786.786 0 1 0 1.571 0v-15.02h6.657a6.519 6.519 0 0 1 6.509 6.52v13.29h-2a4.974 4.974 0 0 0-9.824 0h-1.345v-1.12a.786.786 0 1 0-1.571 0v1.12h-8.336a4.974 4.974 0 0 0-9.823 0h-1.634v-22.01h5.261a.785.785 0 1 0 0-1.57h-6.046a.783.783 0 0 0-.785.78v23.59a.791.791 0 0 0 .785.79h2.419a4.974 4.974 0 0 0 9.823 0h11.252a4.974 4.974 0 0 0 9.824 0h2.782a.791.791 0 0 0 .785-.79v-14.08a8.094 8.094 0 0 0-8.076-8.09Zm-21.475 25.58a3.41 3.41 0 1 1 3.4-3.41 3.411 3.411 0 0 1-3.4 3.41Zm21.075 0a3.411 3.411 0 0 1-3.4-3.41 3.4 3.4 0 1 1 3.4 3.41Zm.4-22.44h-4.3a.791.791 0 0 0-.785.79v7.39a.791.791 0 0 0 .785.79H849a.792.792 0 0 0 .786-.79v-3.23a4.949 4.949 0 0 0-4.943-4.95Zm3.367 7.39h-6.882v-5.81h3.515a3.371 3.371 0 0 1 3.367 3.37v2.44Zm-24.842 9.61a2.03 2.03 0 1 0 2.024 2.03 2.029 2.029 0 0 0-2.024-2.03Zm0 2.49a.46.46 0 0 1-.455-.46.455.455 0 0 1 .909 0 .46.46 0 0 1-.454.46Zm21.075-2.49a2.03 2.03 0 1 0 2.025 2.03 2.03 2.03 0 0 0-2.025-2.03Zm0 2.49a.46.46 0 0 1-.454-.46.454.454 0 0 1 .908 0 .46.46 0 0 1-.454.46Zm4.552-8.37a.783.783 0 0 0-.785.78v1.99a.786.786 0 1 0 1.571 0v-1.99a.784.784 0 0 0-.781-.78Z" transform="translate(-803.812 -1020.56)" style="fill-rule:evenodd;fill:#a3bbc8"/><circle cx="43.938" cy="26.645" r="9.812" style="opacity:.34;fill:#a3bbc8"/></svg><svg viewBox="0 0 19 17" id="favorite" xmlns="http://www.w3.org/2000/svg"><path fill-rule="evenodd" fill="#243F4D" d="M9.913 16.244a.714.714 0 0 1-.28-.056C9.28 16.039.983 12.439.983 5.429 1.074 2.779 3.19.721 5.801.721c1.743 0 3.266.918 4.112 2.31a4.796 4.796 0 0 1 4.112-2.31c2.609 0 4.725 2.058 4.817 4.684 0 7.034-8.297 10.634-8.649 10.783a.718.718 0 0 1-.28.056ZM5.801 2.106c-1.847 0-3.343 1.47-3.408 3.346 0 5.408 6.125 8.663 7.52 9.335 1.395-.672 7.52-3.93 7.52-9.358-.065-1.853-1.563-3.323-3.408-3.323s-3.342 1.47-3.408 3.346a.698.698 0 0 1-.704.669.7.7 0 0 1-.705-.669c-.064-1.876-1.561-3.346-3.407-3.346Z"/></svg><svg viewBox="0 0 20.03 20.031" id="menu" xmlns="http://www.w3.org/2000/svg"><path d="M1813.15 67.881a2.146 2.146 0 1 1 2.14-2.145 2.145 2.145 0 0 1-2.14 2.145Zm0 7.869a2.146 2.146 0 1 1 2.14-2.147 2.146 2.146 0 0 1-2.14 2.147Zm0 7.868a2.146 2.146 0 1 1 2.14-2.146 2.145 2.145 0 0 1-2.14 2.146Zm7.86-15.737a2.146 2.146 0 1 1 2.15-2.145 2.143 2.143 0 0 1-2.15 2.145Zm0 7.869a2.146 2.146 0 1 1 2.15-2.147 2.144 2.144 0 0 1-2.15 2.147Zm0 7.868a2.146 2.146 0 1 1 2.15-2.146 2.143 2.143 0 0 1-2.15 2.146Zm7.87-15.737a2.146 2.146 0 1 1 2.15-2.145 2.143 2.143 0 0 1-2.15 2.145Zm0 7.869a2.146 2.146 0 1 1 2.15-2.147 2.144 2.144 0 0 1-2.15 2.147Zm0 7.868a2.146 2.146 0 1 1 2.15-2.146 2.143 2.143 0 0 1-2.15 2.146Z" transform="translate(-1811 -63.594)" style="fill:#fff;fill-rule:evenodd"/></svg><svg viewBox="0 0 53.56 52.25" id="payment" xmlns="http://www.w3.org/2000/svg"><path d="M1444.43 1042.32a.83.83 0 0 0-.84.83v8.27a2.164 2.164 0 0 1-2.16 2.16h-39.34a2.164 2.164 0 0 1-2.16-2.16v-11.92h27.29a.84.84 0 1 0 0-1.68h-27.29v-5.47h9.87a.828.828 0 0 0 .83-.83.837.837 0 0 0-.83-.84h-9.87v-2.88a2.166 2.166 0 0 1 2.16-2.17h25.13a.835.835 0 1 0 0-1.67h-25.13a3.839 3.839 0 0 0-3.83 3.84v23.62a3.837 3.837 0 0 0 3.83 3.83h39.34a3.837 3.837 0 0 0 3.83-3.83v-8.27a.828.828 0 0 0-.83-.83Zm-17.21-11.64H1413a.837.837 0 0 0-.83.84.828.828 0 0 0 .83.83h14.22a.837.837 0 0 0 .84-.83.845.845 0 0 0-.84-.84Zm-9.24 11.56h-14.27a.835.835 0 0 0 0 1.67h14.27a.835.835 0 1 0 0-1.67Zm-6.08 3.99h-8.19a.835.835 0 0 0 0 1.67h8.19a.835.835 0 0 0 0-1.67Zm34.63-13.61a.832.832 0 0 0 .84-.84v-4.77a3.038 3.038 0 0 0-2.39-2.97v-6.02a6.6 6.6 0 1 0-13.19 0v6.02a3.053 3.053 0 0 0-2.4 2.97v10.75a3.045 3.045 0 0 0 3.04 3.04h11.9a3.039 3.039 0 0 0 3.04-3.04v-3.19a.835.835 0 0 0-1.67 0v3.19a1.379 1.379 0 0 1-1.37 1.37h-11.9a1.379 1.379 0 0 1-1.37-1.37v-10.75a1.379 1.379 0 0 1 1.37-1.37h11.9a1.379 1.379 0 0 1 1.37 1.37v4.77a.83.83 0 0 0 .83.84Zm-3.23-8.65h-9.84v-5.95a4.92 4.92 0 1 1 9.84 0v5.95Zm-4.92 4.32a3.092 3.092 0 0 0-.83 6.07v2.04a.83.83 0 0 0 .83.84.839.839 0 0 0 .84-.84v-2.04a3.094 3.094 0 0 0-.84-6.07Zm0 4.52a1.425 1.425 0 1 1 1.42-1.43 1.428 1.428 0 0 1-1.42 1.43Z" transform="translate(-1398.25 -1011.41)" style="fill-rule:evenodd;fill:#a3bbc8"/><circle cx="43.75" cy="42.45" r="9.81" style="opacity:.34;fill:#a3bbc8"/></svg><svg viewBox="0 0 15.28 15.281" id="search" xmlns="http://www.w3.org/2000/svg"><path d="M1547.7 72.076a.617.617 0 0 1 .75.485 2.583 2.583 0 0 0 .78 1.489 3.036 3.036 0 0 0 1.49.777.636.636 0 0 1 .49.743.649.649 0 0 1-.72.515 4.21 4.21 0 0 1-2.14-1.13 4.164 4.164 0 0 1-1.13-2.136.6.6 0 0 1 .48-.743Zm3.28-6.076a6.267 6.267 0 0 1 6.28 6.257 6.136 6.136 0 0 1-.57 2.6l2.34 2.036c1.7 1.746.74 3.266.29 3.717-.42.454-1.99 1.414-3.73-.292l-2.06-2.35A6.261 6.261 0 1 1 1550.98 66Zm5.55 13.517a1.352 1.352 0 0 0 1.88.226 1.313 1.313 0 0 0-.23-1.874l-2.16-1.88a6.236 6.236 0 0 1-1.37 1.34Zm-5.55-2.312a4.948 4.948 0 1 0-4.97-4.948 4.963 4.963 0 0 0 4.97 4.943Z" transform="translate(-1544.72 -66)" style="fill:#243f4d;fill-rule:evenodd"/></svg><svg viewBox="0 0 50.875 53.13" id="support" xmlns="http://www.w3.org/2000/svg"><path d="M263.984 1044.59a9.815 9.815 0 1 1-9.8 9.82 9.811 9.811 0 0 1 9.8-9.82Z" transform="translate(-222.906 -1011.09)" style="opacity:.34;fill:#a3bbc8;fill-rule:evenodd"/><path d="M268.312 1022.67a.937.937 0 0 0-1.592.99 22.684 22.684 0 0 1-32.86 30.14.938.938 0 0 0-1.125 1.5 24.559 24.559 0 0 0 35.577-32.63Zm-23.03 21.94h-7.55l4.743-4.75a12.68 12.68 0 0 0 3.744-9.03 5.844 5.844 0 1 0-11.688 0 .938.938 0 0 0 1.875 0 3.969 3.969 0 1 1 7.938 0 10.836 10.836 0 0 1-3.195 7.71l-6.344 6.34a.949.949 0 0 0-.2 1.03.93.93 0 0 0 .866.57h9.813a.935.935 0 1 0-.002-1.87Zm15.039-6.44h-2.6v-1.52a.938.938 0 0 0-1.875 0v1.52h-5.286l5.286-8.85v4.21a.938.938 0 1 0 1.875 0v-7.62a.957.957 0 0 0-.456-.8.94.94 0 0 0-1.286.33l-7.875 13.19a.933.933 0 0 0-.011.94.951.951 0 0 0 .816.48h6.938v5.5a.938.938 0 0 0 1.875 0v-5.5h2.6a.94.94 0 0 0-.001-1.88Zm5.33-22.63a.938.938 0 1 0-1.875.04l.042 1.75a24.556 24.556 0 0 0-33.549 35.85.93.93 0 0 0 .656.27.92.92 0 0 0 .669-.28.942.942 0 0 0-.013-1.33 22.679 22.679 0 0 1 15.882-38.87 22.745 22.745 0 0 1 15.107 5.77l-1.843.04a.935.935 0 0 0 .022 1.87h.023l4.06-.09a.934.934 0 0 0 .915-.96Z" transform="translate(-222.906 -1011.09)" style="fill:#a3bbc8;fill-rule:evenodd"/></svg></svg>