<?xml version="1.0" encoding="utf-8"?><!DOCTYPE svg PUBLIC "-//W3C//DTD SVG 1.1//EN" "http://www.w3.org/Graphics/SVG/1.1/DTD/svg11.dtd"><svg viewBox="0 0 1000 1000" xmlns="http://www.w3.org/2000/svg" xmlns:xlink="http://www.w3.org/1999/xlink"><style>:root>svg{display:none}:root>svg:target{display:block}</style><svg viewBox="0 0 6 10" id="angle-right" xmlns="http://www.w3.org/2000/svg"><path fill-rule="evenodd" fill="#243F4D" d="M.472 9.538a.459.459 0 0 0 .331-.14l4.221-4.265a.522.522 0 0 0 .108-.157v-.001a.537.537 0 0 0 .045-.217v-.002a.528.528 0 0 0-.044-.211v-.002a.525.525 0 0 0-.109-.159L.803.119a.46.46 0 0 0-.68.019.53.53 0 0 0-.131.352c0 .137.05.272.149.372l3.857 3.896L.141 8.655a.528.528 0 0 0-.149.372c0 .126.043.253.131.352a.467.467 0 0 0 .349.159Z"/></svg><svg viewBox="0 0 22 9" id="arrow" xmlns="http://www.w3.org/2000/svg"><path d="M535.3 654.472h16.948l-.1 2.857a.292.292 0 0 0 0 .41l.172.172a.28.28 0 0 0 .2.086.285.285 0 0 0 .2-.084l4.193-4.211a.292.292 0 0 0 .087-.202.283.283 0 0 0-.084-.2l-4.193-4.213a.289.289 0 0 0-.407 0l-.172.173a.287.287 0 0 0-.084.2.278.278 0 0 0 .084.2l.113 2.865h-16.965a.3.3 0 0 0-.292.295v1.37a.292.292 0 0 0 .3.282Z" transform="translate(-535 -649)" style="fill:#fff;fill-rule:evenodd"/></svg><svg viewBox="0 0 22 9" id="arrow-blog" xmlns="http://www.w3.org/2000/svg"><path d="M603.3 2616.47h16.948l-.1 2.86a.279.279 0 0 0-.084.2.3.3 0 0 0 .084.21l.172.17a.276.276 0 0 0 .408 0l4.192-4.21a.283.283 0 0 0 .084-.2.307.307 0 0 0-.084-.21l-4.192-4.21a.3.3 0 0 0-.408 0l-.172.17a.3.3 0 0 0-.084.21.3.3 0 0 0 .084.2l.113 2.86h-16.969a.3.3 0 0 0-.292.3v1.37a.288.288 0 0 0 .3.28Z" transform="translate(-603 -2611)" style="fill:#a3bbc8;fill-rule:evenodd"/></svg><svg viewBox="0 0 22 9" id="arrow-dark" xmlns="http://www.w3.org/2000/svg"><path d="M603.3 2616.47h16.948l-.1 2.86a.279.279 0 0 0-.084.2.3.3 0 0 0 .084.21l.172.17a.276.276 0 0 0 .408 0l4.192-4.21a.283.283 0 0 0 .084-.2.307.307 0 0 0-.084-.21l-4.192-4.21a.3.3 0 0 0-.408 0l-.172.17a.3.3 0 0 0-.084.21.3.3 0 0 0 .084.2l.113 2.86h-16.969a.3.3 0 0 0-.292.3v1.37a.288.288 0 0 0 .3.28Z" transform="translate(-603 -2611)" style="fill:#436372;fill-rule:evenodd"/></svg><svg viewBox="0 0 22 9" id="arrow-slider" xmlns="http://www.w3.org/2000/svg"><path d="M1509.3 1332.47h16.94l-.1 2.86a.3.3 0 0 0-.08.2.323.323 0 0 0 .08.21l.18.17a.267.267 0 0 0 .4 0l4.2-4.21a.3.3 0 0 0 .08-.2.323.323 0 0 0-.08-.21l-4.2-4.21a.29.29 0 0 0-.4 0l-.18.17a.323.323 0 0 0-.08.21.318.318 0 0 0 .08.2l.12 2.86h-16.97a.3.3 0 0 0-.29.3v1.37a.291.291 0 0 0 .3.28Z" transform="translate(-1509 -1327)" style="fill:#a3bbc8;fill-rule:evenodd"/></svg><svg viewBox="0 0 6.1 10.97" id="arrow-viewall" xmlns="http://www.w3.org/2000/svg"><path d="M1539.33 4295.69a.53.53 0 0 1-.41-.19.6.6 0 0 1-.15-.4.631.631 0 0 1 .17-.43l4.55-4.47-4.55-4.48a.607.607 0 0 1-.17-.42.629.629 0 0 1 .15-.41.559.559 0 0 1 .8-.02l4.98 4.9.01.01a.657.657 0 0 1 .12.17.7.7 0 0 1 .05.25.742.742 0 0 1-.05.25.61.61 0 0 1-.12.16c0 .01-.01.01-.01.02l-4.98 4.9a.589.589 0 0 1-.39.16Z" transform="translate(-1538.78 -4284.72)" style="fill:#262626;fill-rule:evenodd"/></svg><svg viewBox="0 0 511.999 511.999" xml:space="preserve" id="author" xmlns="http://www.w3.org/2000/svg"><path fill="#222933" d="m421.578 190.264-99.847-99.847a6.241 6.241 0 0 0-8.829 0L82.824 320.495a6.241 6.241 0 0 0 0 8.829l99.847 99.847a6.241 6.241 0 0 0 8.829 0l230.078-230.078a6.241 6.241 0 0 0 0-8.829zM506.511 87.672 424.323 5.484c-7.308-7.31-19.175-7.315-26.488 0L348.219 55.1a6.241 6.241 0 0 0 0 8.829l99.847 99.847a6.245 6.245 0 0 0 8.829 0l49.616-49.616c7.315-7.313 7.315-19.173 0-26.488z"/><path fill="#222933" d="M508.133 491.11c-1.054-9.556-9.489-16.599-19.104-16.599H111.633l36.058-15.163c4.088-1.719 5.131-7.034 1.994-10.17l-86.854-86.854c-3.137-3.135-8.451-2.094-10.17 1.994-.437 1.041-50.609 120.342-51.034 121.389-5.815 13.208 4.855 27.01 18.107 26.263H489.52c11.046 0 19.859-9.562 18.613-20.86z"/></svg><svg viewBox="0 0 511.999 511.999" xml:space="preserve" id="author-light" xmlns="http://www.w3.org/2000/svg"><path fill="#fff" d="m421.578 190.264-99.847-99.847a6.241 6.241 0 0 0-8.829 0L82.824 320.495a6.241 6.241 0 0 0 0 8.829l99.847 99.847a6.241 6.241 0 0 0 8.829 0l230.078-230.078a6.241 6.241 0 0 0 0-8.829zM506.511 87.672 424.323 5.484c-7.308-7.31-19.175-7.315-26.488 0L348.219 55.1a6.241 6.241 0 0 0 0 8.829l99.847 99.847a6.245 6.245 0 0 0 8.829 0l49.616-49.616c7.315-7.313 7.315-19.173 0-26.488z"/><path fill="#fff" d="M508.133 491.11c-1.054-9.556-9.489-16.599-19.104-16.599H111.633l36.058-15.163c4.088-1.719 5.131-7.034 1.994-10.17l-86.854-86.854c-3.137-3.135-8.451-2.094-10.17 1.994-.437 1.041-50.609 120.342-51.034 121.389-5.815 13.208 4.855 27.01 18.107 26.263H489.52c11.046 0 19.859-9.562 18.613-20.86z"/></svg><svg viewBox="0 0 41.78 40.406" id="award" xmlns="http://www.w3.org/2000/svg"><path d="M1399.9 951.7a8.516 8.516 0 0 1 .83-3.671l-13.22-20.446a.919.919 0 0 1 .11-1.139l6.32-6.418a.9.9 0 0 1 .63-.266h27.35a.882.882 0 0 1 .63.266l6.32 6.418a.906.906 0 0 1 .11 1.139l-13.22 20.447a8.508 8.508 0 0 1 .83 3.67 8.346 8.346 0 1 1-16.69 0Zm1.79 0a6.556 6.556 0 1 0 6.56-6.661 6.617 6.617 0 0 0-6.56 6.661Zm8.55-8.23a8.324 8.324 0 0 1 4.47 2.884l11.87-18.362h-6.34Zm-8.46 2.883a8.354 8.354 0 0 1 4.48-2.883l-10.01-15.478h-6.34Zm6.45-3.127h.03l9.85-15.234h-19.73Zm-17.82-17.047h35.67l-4.53-4.606h-26.61Zm17.25 28.919v-4.9h-.53a.907.907 0 0 1 0-1.814h1.42a.9.9 0 0 1 .89.908v5.808a.89.89 0 1 1-1.78-.007Z" transform="translate(-1387.34 -919.75)" style="fill:#a3bbc8;fill-rule:evenodd"/></svg><svg viewBox="0 0 60.32 63.94" id="brands" xmlns="http://www.w3.org/2000/svg"><circle cx="43.44" cy="46.44" r="16.88" style="fill:#a3bbc8"/><path d="M1413.15 1277.01a17.9 17.9 0 0 0-20.89 3.38 18.376 18.376 0 0 0-1.5 24.05 1.029 1.029 0 0 0 .79.39.981.981 0 0 0 .62-.22 1.011 1.011 0 0 0 .17-1.41 16.324 16.324 0 0 1 1.33-21.38 15.907 15.907 0 0 1 18.58-3.01 1 1 0 0 0 1.34-.44 1.018 1.018 0 0 0-.44-1.36Zm7.97 8.05a.99.99 0 0 0-1.34-.44 1.007 1.007 0 0 0-.44 1.35 16.279 16.279 0 0 1-2.98 18.75 15.948 15.948 0 0 1-21.18 1.34.992.992 0 0 0-1.4.18 1.011 1.011 0 0 0 .17 1.41 17.914 17.914 0 0 0 23.82-1.5 18.316 18.316 0 0 0 3.35-21.09Zm-2.58-3.84c-.24-.28-.5-.56-.77-.83s-.54-.53-.82-.78a1 1 0 0 0-1.32 1.51c.25.23.49.46.73.7s.47.49.69.74a.991.991 0 0 0 .74.34 1.05 1.05 0 0 0 .67-.25 1.021 1.021 0 0 0 .08-1.43Zm10.04 13.86a3.439 3.439 0 0 0 0-3.58l-1.31-2.17a1.412 1.412 0 0 1-.19-.96l.39-2.51a3.427 3.427 0 0 0-1.36-3.31l-2.03-1.5a1.384 1.384 0 0 1-.54-.81l-.6-2.47a3.391 3.391 0 0 0-2.5-2.53l-2.45-.6a1.448 1.448 0 0 1-.81-.54l-1.48-2.06a3.365 3.365 0 0 0-3.28-1.37l-2.48.39a1.374 1.374 0 0 1-.95-.19l-2.16-1.32a3.326 3.326 0 0 0-3.54 0l-2.15 1.32a1.384 1.384 0 0 1-.95.19l-2.49-.39a3.373 3.373 0 0 0-3.28 1.37l-1.48 2.05a1.393 1.393 0 0 1-.8.55l-2.45.6a3.388 3.388 0 0 0-2.51 2.53l-.59 2.47a1.415 1.415 0 0 1-.54.81l-2.04 1.5a3.427 3.427 0 0 0-1.36 3.31l.39 2.51a1.406 1.406 0 0 1-.18.96l-1.32 2.17a3.484 3.484 0 0 0 0 3.58l1.32 2.17a1.406 1.406 0 0 1 .18.96l-.39 2.51a3.427 3.427 0 0 0 1.36 3.31l2.04 1.5a1.384 1.384 0 0 1 .54.81l.59 2.47a3.391 3.391 0 0 0 2.5 2.53l1.03.25-6.93 15.59a1.043 1.043 0 0 0 .11 1.01.981.981 0 0 0 .92.4l5.57-.67 3.21 4.65a1.01 1.01 0 0 0 .82.43h.1a.994.994 0 0 0 .81-.6l7.08-15.92.89.55a3.326 3.326 0 0 0 3.54 0l.93-.57 7.08 15.94a1.009 1.009 0 0 0 .82.6h.09a1 1 0 0 0 .82-.43l3.21-4.65 5.57.68a1.015 1.015 0 0 0 1.03-1.42l-6.93-15.6.99-.24a3.391 3.391 0 0 0 2.5-2.53l.6-2.47a1.384 1.384 0 0 1 .54-.81l2.03-1.5a3.427 3.427 0 0 0 1.36-3.31l-.39-2.51a1.412 1.412 0 0 1 .19-.96Zm-34.36 34.88-2.54-3.69a.99.99 0 0 0-.94-.42l-4.41.53 6.31-14.2a1.421 1.421 0 0 1 .3.3l1.48 2.06a3.958 3.958 0 0 0 .47.53l-3.32 7.48a1.005 1.005 0 0 0 .91 1.42 1 1 0 0 0 .91-.6l3.31-7.45a3.725 3.725 0 0 0 1-.01l2.49-.39a1.086 1.086 0 0 1 .44 0Zm29.62-3.58-4.42-.53a.983.983 0 0 0-.93.42l-2.55 3.69-6.41-14.45a1.136 1.136 0 0 1 .41.01l2.48.39a3.3 3.3 0 0 0 1.04 0l3.31 7.46a1.012 1.012 0 0 0 .91.6.978.978 0 0 0 .41-.09 1.011 1.011 0 0 0 .5-1.33l-3.33-7.51a3.5 3.5 0 0 0 .44-.5l1.48-2.06a1.518 1.518 0 0 1 .34-.33Zm3.04-32.35-1.32 2.17a3.435 3.435 0 0 0-.45 2.32l.39 2.51a1.419 1.419 0 0 1-.56 1.37l-2.04 1.5a3.4 3.4 0 0 0-1.3 1.96l-.6 2.48a1.383 1.383 0 0 1-1.03 1.04l-2.45.6a3.357 3.357 0 0 0-1.95 1.32l-1.48 2.05a1.39 1.39 0 0 1-1.36.57l-2.48-.4a3.42 3.42 0 0 0-2.3.46l-2.16 1.33a1.374 1.374 0 0 1-1.46 0l-2.15-1.33a3.4 3.4 0 0 0-1.78-.5 4.55 4.55 0 0 0-.52.04l-2.49.4a1.382 1.382 0 0 1-1.35-.57l-1.49-2.05a3.357 3.357 0 0 0-1.95-1.32l-2.45-.6a1.383 1.383 0 0 1-1.03-1.04l-.59-2.48a3.412 3.412 0 0 0-1.31-1.96l-2.03-1.5a1.426 1.426 0 0 1-.57-1.37l.4-2.51a3.5 3.5 0 0 0-.46-2.32l-1.31-2.17a1.409 1.409 0 0 1 0-1.48l1.31-2.17a3.5 3.5 0 0 0 .46-2.32l-.39-2.52a1.391 1.391 0 0 1 .56-1.36l2.03-1.5a3.467 3.467 0 0 0 1.31-1.97l.59-2.47a1.383 1.383 0 0 1 1.03-1.04l2.45-.6a3.412 3.412 0 0 0 1.96-1.32l1.48-2.05a1.382 1.382 0 0 1 1.35-.57l2.49.39a3.331 3.331 0 0 0 2.3-.46l2.15-1.32a1.374 1.374 0 0 1 1.46 0l2.16 1.32a3.31 3.31 0 0 0 2.3.46l2.48-.39a1.39 1.39 0 0 1 1.36.57l1.48 2.05a3.389 3.389 0 0 0 1.95 1.32l2.45.6a1.383 1.383 0 0 1 1.03 1.04l.6 2.47a3.42 3.42 0 0 0 1.3 1.97l2.04 1.5a1.411 1.411 0 0 1 .56 1.36l-.39 2.52a3.435 3.435 0 0 0 .45 2.32l1.32 2.17a1.453 1.453 0 0 1 0 1.48Zm-10.13-3.88a1.788 1.788 0 0 0-1.51-1.24l-6.01-.72-2.53-5.55a1.8 1.8 0 0 0-3.28 0l-2.53 5.55-6.01.72a1.775 1.775 0 0 0-1.5 1.24 1.818 1.818 0 0 0 .49 1.9l4.44 4.15-1.18 5.99a1.819 1.819 0 0 0 1.77 2.18 1.767 1.767 0 0 0 .88-.24l5.28-2.98 5.28 2.98a1.757 1.757 0 0 0 1.94-.11 1.807 1.807 0 0 0 .71-1.83l-1.18-5.99 4.44-4.15a1.8 1.8 0 0 0 .5-1.9Zm-6.7 4.95a1.006 1.006 0 0 0-.3.94l1.2 6.13-5.4-3.05a.947.947 0 0 0-.49-.13.973.973 0 0 0-.49.13l-5.4 3.05 1.21-6.13a1.031 1.031 0 0 0-.3-.94l-4.55-4.24 6.15-.74a1.01 1.01 0 0 0 .79-.58l2.59-5.67 2.59 5.67a1.01 1.01 0 0 0 .79.58l6.15.74Z" transform="translate(-1381.06 -1269.06)" style="fill:#243f4d;fill-rule:evenodd"/></svg><svg viewBox="0 0 18.94 16.969" id="cart" xmlns="http://www.w3.org/2000/svg"><path d="M1721.53 85.978a2.073 2.073 0 1 1 0-4.147 2.056 2.056 0 0 1 1.46.6 2.03 2.03 0 0 1 .61 1.466 2.071 2.071 0 0 1-2.07 2.081Zm0-2.963a.889.889 0 1 0 .34 1.71.9.9 0 0 0 .55-.824.92.92 0 0 0-.26-.629.9.9 0 0 0-.63-.257Zm8.39 2.963a2.045 2.045 0 0 1-1.46-.607 2.068 2.068 0 0 1 1.46-3.54 1.953 1.953 0 0 1 1.47.6 2.085 2.085 0 0 1-.67 3.383 2.093 2.093 0 0 1-.8.164Zm0-2.963a.978.978 0 0 0-.82.548.887.887 0 0 0 1.16 1.161.891.891 0 0 0 .29-1.452.9.9 0 0 0-.63-.257Zm-11.27.164a.562.562 0 0 1-.25-.056.59.59 0 0 1-.29-.787 3.686 3.686 0 0 1 3.05-2.151l-1.05-5.391a.591.591 0 1 1 1.16-.228l1.09 5.578h9.43l1.8-6.771h-13.3a4.346 4.346 0 0 1-4.28-3.693.587.587 0 0 1 .49-.673.6.6 0 0 1 .68.5 3.159 3.159 0 0 0 3.11 2.682h14.07a.582.582 0 0 1 .47.232.594.594 0 0 1 .11.513l-2.13 7.956a.59.59 0 0 1-.57.44h-10.36a.03.03 0 0 0-.02 0 2.66 2.66 0 0 0-2.68 1.51.586.586 0 0 1-.53.338Z" transform="translate(-1716 -69)" style="fill:#243f4d;fill-rule:evenodd"/></svg><svg viewBox="0 0 22 20" id="cart-card" xmlns="http://www.w3.org/2000/svg"><path fill-rule="evenodd" d="m21.934 5.216-3.717 8.56a.813.813 0 0 1-.746.488H7.257a.814.814 0 0 1-.787-.597L3.147 1.629H.814A.817.817 0 0 1 0 .814c0-.449.366-.816.814-.816h2.943c.367 0 .692.245.787.598l3.323 12.038h9.062l3.011-6.929H9.902a.816.816 0 0 1 0-1.631h11.286c.271 0 .529.137.678.366a.829.829 0 0 1 .068.776ZM6.484 16.303a1.848 1.848 0 0 1 0 3.696 1.849 1.849 0 0 1 0-3.696Zm11.408 0a1.85 1.85 0 0 1 1.519 3.057c-.326.38-.773.598-1.262.639h-.135a1.85 1.85 0 0 1-1.831-1.726 1.849 1.849 0 0 1 1.709-1.97Z"/></svg><svg viewBox="0 0 73.375 59.38" id="clients" xmlns="http://www.w3.org/2000/svg"><circle cx="56.5" cy="42.5" r="16.875" style="fill:#a3bbc8"/><path d="M530.635 1273h-57.27a3.368 3.368 0 0 0-3.365 3.36v41.14a3.368 3.368 0 0 0 3.365 3.36h21.691l-.877 7h-3.633a1.07 1.07 0 1 0 0 2.14h22.908a1.07 1.07 0 1 0 0-2.14h-3.634l-.877-7h21.692a3.368 3.368 0 0 0 3.365-3.36v-41.14a3.368 3.368 0 0 0-3.365-3.36Zm-34.291 54.86.877-7h9.558l.877 7h-11.312Zm35.508-10.36a1.213 1.213 0 0 1-1.217 1.21h-57.27a1.212 1.212 0 0 1-1.217-1.21v-41.14a1.221 1.221 0 0 1 1.217-1.22h57.27a1.222 1.222 0 0 1 1.217 1.22v41.14Zm-11.525-39.93h-44.672a1.072 1.072 0 0 0-1.073 1.07v35.43a1.072 1.072 0 0 0 1.073 1.07h3.437a1.07 1.07 0 1 0 0-2.14h-2.363v-33.29h43.6a1.07 1.07 0 1 0-.002-2.14Zm8.017 0h-3.436a1.07 1.07 0 1 0 0 2.14h2.363V1313h-43.6a1.07 1.07 0 1 0 0 2.14h44.671a1.073 1.073 0 0 0 1.074-1.07v-35.43a1.073 1.073 0 0 0-1.072-1.07Zm-6.872 5.72a3.352 3.352 0 0 0-2.97 4.93l-8.6 9.09a3.322 3.322 0 0 0-1.408-.31 3.361 3.361 0 0 0-2.314.92l-7.348-3.88a3.364 3.364 0 1 0-6.684-.54 3.352 3.352 0 0 0 .328 1.45l-8.406 8.14a3.331 3.331 0 0 0-1.539-.38 3.36 3.36 0 1 0 3.036 1.91l8.406-8.14a3.328 3.328 0 0 0 3.852-.55l7.348 3.88a3.54 3.54 0 0 0-.044.55 3.365 3.365 0 1 0 6.334-1.58l8.6-9.09a3.316 3.316 0 0 0 1.408.31 3.355 3.355 0 1 0 .001-6.71Zm-38.944 24a1.215 1.215 0 1 1 1.217-1.22 1.222 1.222 0 0 1-1.217 1.22Zm12.981-12.58a1.21 1.21 0 1 1 1.217-1.21 1.213 1.213 0 0 1-1.217 1.21Zm12.982 6.86a1.215 1.215 0 1 1 1.217-1.21 1.212 1.212 0 0 1-1.217 1.21Zm12.981-13.71a1.215 1.215 0 1 1 1.217-1.22 1.222 1.222 0 0 1-1.217 1.22Zm0 4.57a1.073 1.073 0 0 0-1.074 1.07v16a1.074 1.074 0 0 0 2.148 0v-16a1.073 1.073 0 0 0-1.074-1.07Zm-25.963 6.86a1.066 1.066 0 0 0-1.074 1.07v9.14a1.074 1.074 0 0 0 2.148 0v-9.14a1.066 1.066 0 0 0-1.074-1.07Zm12.982 6.85a1.073 1.073 0 0 0-1.074 1.07v2.29a1.074 1.074 0 0 0 2.147 0v-2.29a1.072 1.072 0 0 0-1.073-1.07Z" transform="translate(-470 -1273)" style="fill:#243f4d;fill-rule:evenodd"/></svg><svg viewBox="0 0 18 15" id="comment" xmlns="http://www.w3.org/2000/svg"><path fill-rule="evenodd" fill="#436372" d="M16.714 12.518H5.766L3.303 14.88a.441.441 0 0 1-.467.089.413.413 0 0 1-.265-.38v-2.071H1.286C.577 12.518 0 11.965 0 11.285V1.424C0 .744.577.191 1.286.191h15.428C17.423.191 18 .744 18 1.424v9.861c0 .68-.577 1.233-1.286 1.233Zm.429-11.094a.42.42 0 0 0-.429-.411H1.286a.42.42 0 0 0-.429.411v9.861a.42.42 0 0 0 .429.411H3a.42.42 0 0 1 .428.411v1.49l1.857-1.78a.441.441 0 0 1 .303-.121h11.126a.42.42 0 0 0 .429-.411V1.424Zm-4.8 5.547a.63.63 0 0 1-.643-.616.63.63 0 0 1 .643-.617.63.63 0 0 1 .643.617.63.63 0 0 1-.643.616ZM9 6.971a.63.63 0 0 1-.643-.616A.63.63 0 0 1 9 5.738a.63.63 0 0 1 .643.617.63.63 0 0 1-.643.616Zm-3.586 0a.63.63 0 0 1-.642-.616.63.63 0 0 1 .642-.617.63.63 0 0 1 .643.617.63.63 0 0 1-.643.616Z"/></svg><svg viewBox="0 0 1000 1000" xml:space="preserve" id="date" xmlns="http://www.w3.org/2000/svg"><g fill="#222933"><path d="M859.4 75.3h-98.1v-33c0-17.6-14.6-32.4-32.7-32.4-18.1.1-32.6 14.6-32.6 32.5v33H304v-33c0-17.6-14.6-32.4-32.7-32.4-18.2 0-32.7 14.5-32.7 32.4v33h-98.1c-53.8 0-97.9 43.8-97.9 97.9v718.9c0 53.8 43.8 97.9 97.9 97.9h718.9c53.8 0 97.9-43.8 97.9-97.9v-719c0-53.8-43.8-97.9-97.9-97.9zM892 859.2c0 36.2-29.3 65.5-65.5 65.5h-653c-36.2 0-65.5-29.3-65.5-65.5V369.3h784v489.9zm0-555.2H108v-97.8c0-36.2 29.3-65.5 65.5-65.5h65.2v33c0 17.6 14.6 32.4 32.7 32.4 18.2 0 32.7-14.5 32.7-32.4v-33h392v33c0 17.6 14.6 32.4 32.7 32.4 18.2 0 32.7-14.5 32.7-32.4v-33h65.2c36.2 0 65.5 29.3 65.5 65.5V304z"/><path d="M663.3 467.3H794V598H663.3V467.3zM663.3 696H794v130.7H663.3V696zM434.7 696h130.7v130.7H434.7V696zM434.7 467.3h130.7V598H434.7V467.3zM206 696h130.7v130.7H206V696zM206 467.3h130.7V598H206V467.3z"/></g></svg><svg viewBox="0 0 1000 1000" xml:space="preserve" id="date-grey" xmlns="http://www.w3.org/2000/svg"><g fill="#9a9a9a"><path d="M859.4 75.3h-98.1v-33c0-17.6-14.6-32.4-32.7-32.4-18.1.1-32.6 14.6-32.6 32.5v33H304v-33c0-17.6-14.6-32.4-32.7-32.4-18.2 0-32.7 14.5-32.7 32.4v33h-98.1c-53.8 0-97.9 43.8-97.9 97.9v718.9c0 53.8 43.8 97.9 97.9 97.9h718.9c53.8 0 97.9-43.8 97.9-97.9v-719c0-53.8-43.8-97.9-97.9-97.9zM892 859.2c0 36.2-29.3 65.5-65.5 65.5h-653c-36.2 0-65.5-29.3-65.5-65.5V369.3h784v489.9zm0-555.2H108v-97.8c0-36.2 29.3-65.5 65.5-65.5h65.2v33c0 17.6 14.6 32.4 32.7 32.4 18.2 0 32.7-14.5 32.7-32.4v-33h392v33c0 17.6 14.6 32.4 32.7 32.4 18.2 0 32.7-14.5 32.7-32.4v-33h65.2c36.2 0 65.5 29.3 65.5 65.5V304z"/><path d="M663.3 467.3H794V598H663.3V467.3zM663.3 696H794v130.7H663.3V696zM434.7 696h130.7v130.7H434.7V696zM434.7 467.3h130.7V598H434.7V467.3zM206 696h130.7v130.7H206V696zM206 467.3h130.7V598H206V467.3z"/></g></svg><svg viewBox="0 0 1000 1000" xml:space="preserve" id="date-light" xmlns="http://www.w3.org/2000/svg"><g fill="#fff"><path d="M859.4 75.3h-98.1v-33c0-17.6-14.6-32.4-32.7-32.4-18.1.1-32.6 14.6-32.6 32.5v33H304v-33c0-17.6-14.6-32.4-32.7-32.4-18.2 0-32.7 14.5-32.7 32.4v33h-98.1c-53.8 0-97.9 43.8-97.9 97.9v718.9c0 53.8 43.8 97.9 97.9 97.9h718.9c53.8 0 97.9-43.8 97.9-97.9v-719c0-53.8-43.8-97.9-97.9-97.9zM892 859.2c0 36.2-29.3 65.5-65.5 65.5h-653c-36.2 0-65.5-29.3-65.5-65.5V369.3h784v489.9zm0-555.2H108v-97.8c0-36.2 29.3-65.5 65.5-65.5h65.2v33c0 17.6 14.6 32.4 32.7 32.4 18.2 0 32.7-14.5 32.7-32.4v-33h392v33c0 17.6 14.6 32.4 32.7 32.4 18.2 0 32.7-14.5 32.7-32.4v-33h65.2c36.2 0 65.5 29.3 65.5 65.5V304z"/><path d="M663.3 467.3H794V598H663.3V467.3zM663.3 696H794v130.7H663.3V696zM434.7 696h130.7v130.7H434.7V696zM434.7 467.3h130.7V598H434.7V467.3zM206 696h130.7v130.7H206V696zM206 467.3h130.7V598H206V467.3z"/></g></svg><svg viewBox="0 0 53.75 36.44" id="delivery" xmlns="http://www.w3.org/2000/svg"><path d="M812.816 1025.33h-6.126a.79.79 0 0 0 0 1.58h6.126a.79.79 0 0 0 0-1.58Zm.524 11.01h-5.6a.785.785 0 1 0 0 1.57h5.6a.785.785 0 1 0 0-1.57Zm-2.094-4.72H804.6a.79.79 0 0 0 0 1.58h6.65a.79.79 0 0 0-.004-1.58Zm0 11.01h-.646a.785.785 0 1 0 0 1.57h.644a.785.785 0 1 0 .002-1.57Zm-3.263 0H804.6a.785.785 0 1 0 0 1.57h3.387a.785.785 0 1 0-.004-1.57Zm36.86-19.86h-6.657v-1.42a.784.784 0 0 0-.786-.78h-12.175a.785.785 0 1 0 0 1.57h11.39v17.22a.786.786 0 1 0 1.571 0v-15.02h6.657a6.519 6.519 0 0 1 6.509 6.52v13.29h-2a4.974 4.974 0 0 0-9.824 0h-1.345v-1.12a.786.786 0 1 0-1.571 0v1.12h-8.336a4.974 4.974 0 0 0-9.823 0h-1.634v-22.01h5.261a.785.785 0 1 0 0-1.57h-6.046a.783.783 0 0 0-.785.78v23.59a.791.791 0 0 0 .785.79h2.419a4.974 4.974 0 0 0 9.823 0h11.252a4.974 4.974 0 0 0 9.824 0h2.782a.791.791 0 0 0 .785-.79v-14.08a8.094 8.094 0 0 0-8.076-8.09Zm-21.475 25.58a3.41 3.41 0 1 1 3.4-3.41 3.411 3.411 0 0 1-3.4 3.41Zm21.075 0a3.411 3.411 0 0 1-3.4-3.41 3.4 3.4 0 1 1 3.4 3.41Zm.4-22.44h-4.3a.791.791 0 0 0-.785.79v7.39a.791.791 0 0 0 .785.79H849a.792.792 0 0 0 .786-.79v-3.23a4.949 4.949 0 0 0-4.943-4.95Zm3.367 7.39h-6.882v-5.81h3.515a3.371 3.371 0 0 1 3.367 3.37v2.44Zm-24.842 9.61a2.03 2.03 0 1 0 2.024 2.03 2.029 2.029 0 0 0-2.024-2.03Zm0 2.49a.46.46 0 0 1-.455-.46.455.455 0 0 1 .909 0 .46.46 0 0 1-.454.46Zm21.075-2.49a2.03 2.03 0 1 0 2.025 2.03 2.03 2.03 0 0 0-2.025-2.03Zm0 2.49a.46.46 0 0 1-.454-.46.454.454 0 0 1 .908 0 .46.46 0 0 1-.454.46Zm4.552-8.37a.783.783 0 0 0-.785.78v1.99a.786.786 0 1 0 1.571 0v-1.99a.784.784 0 0 0-.781-.78Z" transform="translate(-803.812 -1020.56)" style="fill-rule:evenodd;fill:#a3bbc8"/><circle cx="43.938" cy="26.645" r="9.812" style="opacity:.34;fill:#a3bbc8"/></svg><svg viewBox="0 0 18 13" id="email" xmlns="http://www.w3.org/2000/svg"><path fill-rule="evenodd" fill="#436372" d="m17.624 12.629-.001.002-.002.002a1.307 1.307 0 0 1-.907.361H1.286c-.354 0-.674-.138-.907-.362l-.002-.001-.001-.002A1.21 1.21 0 0 1 0 11.757V1.858C0 1.176.577.621 1.286.621h15.428c.709 0 1.286.555 1.286 1.237v9.899c0 .34-.144.648-.376.872ZM7.536 6.325l-6.073 5.844h15.074l-6.074-5.844-.726.489c-.22.149-.479.223-.737.223-.259 0-.517-.074-.737-.223l-.727-.489ZM.863 1.83c-.001.01-.006.018-.006.028v9.728l5.966-5.742L.863 1.83Zm.925-.384 6.966 4.692a.445.445 0 0 0 .492 0l6.965-4.692H1.788Zm15.355.412c0-.01-.006-.018-.006-.028l-5.96 4.014 5.966 5.742V1.858Z"/></svg><svg viewBox="0 0 8.13 15.44" id="facebook" xmlns="http://www.w3.org/2000/svg"><path data-name="Path 1" d="M1069.19 1899.12c.41 0 .83.03 1.24.05.27.01.54.04.79.07l-.02 2.49h-.2c-.27 0-.54-.01-.82-.01-.2 0-.4.01-.61.01a1.041 1.041 0 0 0-1.18 1.09c-.02.6-.03 1.9-.03 1.97.03 0 .68.01 1.34.01.32 0 .64 0 .87-.01h.53c-.13.96-.26 1.87-.39 2.8h-2.35l-.06 6.97h-2.89l.06-6.99h-2.37l.02-2.77h2.38v-.21c.01-.56 0-1.12.02-1.68a7.581 7.581 0 0 1 .09-1.06 3.145 3.145 0 0 1 1.27-2.08 3.6 3.6 0 0 1 2.08-.64c.08 0 .15-.01.23-.01Z" transform="translate(-1063.09 -1899.12)" style="fill-rule:evenodd"/></svg><svg viewBox="0 0 19 17" id="favorite" xmlns="http://www.w3.org/2000/svg"><path fill-rule="evenodd" fill="#243F4D" d="M9.913 16.244a.714.714 0 0 1-.28-.056C9.28 16.039.983 12.439.983 5.429 1.074 2.779 3.19.721 5.801.721c1.743 0 3.266.918 4.112 2.31a4.796 4.796 0 0 1 4.112-2.31c2.609 0 4.725 2.058 4.817 4.684 0 7.034-8.297 10.634-8.649 10.783a.718.718 0 0 1-.28.056ZM5.801 2.106c-1.847 0-3.343 1.47-3.408 3.346 0 5.408 6.125 8.663 7.52 9.335 1.395-.672 7.52-3.93 7.52-9.358-.065-1.853-1.563-3.323-3.408-3.323s-3.342 1.47-3.408 3.346a.698.698 0 0 1-.704.669.7.7 0 0 1-.705-.669c-.064-1.876-1.561-3.346-3.407-3.346Z"/></svg><svg viewBox="0 0 22 18" id="favorite-card" xmlns="http://www.w3.org/2000/svg"><path fill-rule="evenodd" d="M21.99 5.82a6.212 6.212 0 0 0-1.849-4.1C19.016.61 17.545-.001 16.002-.001c-2.311 0-3.948 1.785-4.827 2.745l-.156.169-.083-.094c-.804-.916-2.476-2.82-4.938-2.82-1.543 0-3.013.611-4.139 1.721A6.212 6.212 0 0 0 .01 5.82c-.082 1.541.31 2.88 1.271 4.338.861 1.308 3.104 3.374 4.763 4.748 1.705 1.411 3.95 3.093 4.965 3.093 1.032 0 3.269-1.68 4.965-3.087 1.646-1.367 3.876-3.432 4.746-4.754.646-.984 1.375-2.366 1.27-4.338Zm-2.376 3.61c-.632.961-2.412 2.736-4.431 4.418-2.406 2.004-3.831 2.795-4.172 2.826-.342-.035-1.77-.833-4.188-2.843-2.03-1.686-3.813-3.454-4.437-4.402-.795-1.206-1.12-2.297-1.054-3.538.135-2.519 2.228-4.569 4.666-4.569 1.863 0 3.216 1.542 3.943 2.37.428.488.663.755 1.059.755.409 0 .672-.286 1.151-.809.794-.866 2.122-2.316 3.851-2.316 2.438 0 4.531 2.05 4.666 4.569.067 1.254-.248 2.313-1.054 3.539Z"/></svg><svg data-name="Group 35" viewBox="0 0 66.58 57.184" id="filters" xmlns="http://www.w3.org/2000/svg"><path data-name="Path 16" d="M17.1 26.329h14.334c1.011 0 2.023.02 3.032-.024.527-.023 1.044.071 1.571.034.56-.04 1.125-.009 1.688-.009h5.025c.667 0 .647-.008.877-.624a8.861 8.861 0 0 1 7.527-6.133 9 9 0 0 1 9.806 6.368.461.461 0 0 0 .519.393c1.524-.011 3.048.006 4.572-.011.387 0 .536.109.529.512q-.031 1.771 0 3.542c.007.409-.151.512-.532.508-1.455-.016-2.911.009-4.366-.014a.683.683 0 0 0-.79.553 9.08 9.08 0 0 1-8.732 6.294 9.07 9.07 0 0 1-8.531-6.292.687.687 0 0 0-.785-.557q-20.966.016-41.932.009a3.9 3.9 0 0 0-.412 0c-.349.037-.48-.083-.473-.459.024-1.235.019-2.471 0-3.707 0-.309.076-.394.39-.393q8.341.017 16.683.01Zm39.725 2.284a4.573 4.573 0 0 0-4.529-4.585 4.615 4.615 0 0 0-4.608 4.551 4.578 4.578 0 0 0 4.533 4.589 4.563 4.563 0 0 0 4.604-4.554Z"/><path data-name="Path 17" d="M52.026 50.335c-4.64 0-9.281.006-13.921-.008a.636.636 0 0 0-.723.517 8.825 8.825 0 0 1-6.667 6.088 8.747 8.747 0 0 1-8.4-2.412 8.587 8.587 0 0 1-2.277-3.753.533.533 0 0 0-.615-.437q-6.013.013-12.026.005c-2.292 0-4.585-.007-6.877.006-.363 0-.5-.083-.494-.48a93.442 93.442 0 0 0-.012-3.706c-.008-.364.192-.366.44-.366h9.761c3.031 0 6.062-.006 9.093.009a.67.67 0 0 0 .764-.53 8.843 8.843 0 0 1 7.366-6.208 8.7 8.7 0 0 1 7.288 2.177 8.784 8.784 0 0 1 2.684 4.156c.113.367.343.4.653.4q3.913-.007 7.825 0H65.74c.927 0 .831-.042.832.812v3.048c0 .686 0 .686-.667.686Zm-23.343 2.291a4.58 4.58 0 0 0 4.619-4.534 4.613 4.613 0 0 0-4.525-4.6 4.589 4.589 0 0 0-4.635 4.484 4.57 4.57 0 0 0 4.541 4.65Z"/><path data-name="Path 18" d="M46.467 11.373H28.592c-.59 0-1.181.019-1.77-.006a.515.515 0 0 0-.583.439 9.022 9.022 0 0 1-3.236 4.6 8.926 8.926 0 0 1-4.538 1.782 8.741 8.741 0 0 1-4.73-.795 8.915 8.915 0 0 1-4.838-5.485.667.667 0 0 0-.777-.548c-2.553.019-5.107 0-7.661.02-.388 0-.442-.117-.438-.462Q.043 9.004 0 7.089c-.007-.31.17-.219.313-.219 2.595 0 5.19-.011 7.784.013a.706.706 0 0 0 .808-.573A8.9 8.9 0 0 1 16.569.073a8.479 8.479 0 0 1 5.544 1.167 8.936 8.936 0 0 1 4.078 5.07.716.716 0 0 0 .825.572q19.358-.018 38.716-.009a3.175 3.175 0 0 0 .37 0c.362-.042.48.113.475.471q-.024 1.812 0 3.624c0 .328-.1.414-.426.413q-6.692-.017-13.384-.009ZM22.126 9.147a4.636 4.636 0 0 0-4.61-4.613 4.584 4.584 0 0 0-4.522 4.6 4.559 4.559 0 0 0 4.57 4.583 4.62 4.62 0 0 0 4.562-4.57Z"/></svg><svg viewBox="0 0 15 15" id="grid-icon" xmlns="http://www.w3.org/2000/svg"><path d="M0 3.75h3.75V0H0v3.75ZM5.625 15h3.75v-3.75h-3.75V15ZM0 15h3.75v-3.75H0V15Zm0-5.625h3.75v-3.75H0v3.75Zm5.625 0h3.75v-3.75h-3.75v3.75ZM11.25 0v3.75H15V0h-3.75ZM5.625 3.75h3.75V0h-3.75v3.75Zm5.625 5.625H15v-3.75h-3.75v3.75Zm0 5.625H15v-3.75h-3.75V15Z"/></svg><svg viewBox="0 0 78.38 64" id="hours" xmlns="http://www.w3.org/2000/svg"><circle cx="61.5" cy="46.5" r="16.88" style="fill:#a3bbc8"/><path d="M1135.06 1322.46a4.359 4.359 0 0 0-2.21-3.23l-11.59-6.45a4.614 4.614 0 0 0-5.46.74l-4.07 4.03a2.4 2.4 0 0 1-3.1.24 75.725 75.725 0 0 1-15.25-15.09 2.362 2.362 0 0 1 .24-3.07l4.07-4.03a4.484 4.484 0 0 0 .75-5.4l-6.52-11.46a4.37 4.37 0 0 0-3.26-2.19 4.685 4.685 0 0 0-3.96 1.34l-4.29 4.24c-3.04 3.01-3.2 8.38-.45 15.13 2.62 6.46 7.61 13.53 14.05 19.9s13.59 11.32 20.12 13.91a23.842 23.842 0 0 0 8.65 1.93 9.073 9.073 0 0 0 6.63-2.37l4.29-4.25a4.6 4.6 0 0 0 1.36-3.92Zm-2.89 2.4-.75.75-9.88-5.34a1.09 1.09 0 0 0-1.47.43 1.066 1.066 0 0 0 .43 1.46l9.32 5.03-1.94 1.92c-2.35 2.32-7.06 2.31-12.94-.03-6.27-2.49-13.15-7.26-19.39-13.44s-11.06-12.98-13.58-19.18c-2.36-5.82-2.37-10.49-.03-12.81l1.94-1.92 1.04 1.89a1.109 1.109 0 0 0 .96.56 1.095 1.095 0 0 0 .95-1.59l-1.35-2.44.75-.74a2.573 2.573 0 0 1 1.8-.76 1.841 1.841 0 0 1 .33.03 2.221 2.221 0 0 1 1.67 1.11l6.52 11.47a2.363 2.363 0 0 1-.39 2.83l-1.94 1.91-5.08-9.22a1.1 1.1 0 0 0-1.47-.43 1.078 1.078 0 0 0-.44 1.46l5.39 9.77-.53.53a4.5 4.5 0 0 0-.45 5.87 75.017 75.017 0 0 0 7.28 8.32 76.9 76.9 0 0 0 8.41 7.21 4.624 4.624 0 0 0 5.94-.44l.53-.53 2.46 1.33a1.112 1.112 0 0 0 .52.13 1.089 1.089 0 0 0 .96-.56 1.064 1.064 0 0 0-.44-1.45l-1.9-1.03 1.93-1.92a2.438 2.438 0 0 1 2.86-.39l11.59 6.45a2.244 2.244 0 0 1 1.13 1.65 2.517 2.517 0 0 1-.74 2.11Zm-2.14-28.37h-1.23v-9.24a1.085 1.085 0 0 0-2.17 0v9.24h-5.67l2.02-9a1.069 1.069 0 0 0-.82-1.28 1.083 1.083 0 0 0-1.3.81l-2.31 10.31a1.073 1.073 0 0 0 .21.9 1.091 1.091 0 0 0 .85.41h7.01v3.5a1.09 1.09 0 0 0 2.18 0v-3.5h1.22a1.075 1.075 0 1 0 .01-2.15Zm-13.89 4.58h-7.99c.47-1.23 1.81-2.01 3.73-3.05 2.38-1.29 5.34-2.88 5.34-6.51a5.729 5.729 0 0 0-11.43 0 1.085 1.085 0 0 0 2.17 0 3.566 3.566 0 0 1 7.09 0c0 2.19-1.59 3.21-4.21 4.62-2.36 1.28-5.05 2.73-5.05 6.01a1.084 1.084 0 0 0 1.09 1.08h9.26a1.075 1.075 0 1 0 0-2.15Zm22.93 12.62-2.11.42a26.086 26.086 0 0 0 8.04-18.84 26.608 26.608 0 0 0-48.27-15.11 1.065 1.065 0 0 0 .26 1.5 1.1 1.1 0 0 0 1.51-.26 24.436 24.436 0 0 1 44.33 13.87 23.961 23.961 0 0 1-7.59 17.5l.48-2.4a1.069 1.069 0 0 0-.85-1.26 1.085 1.085 0 0 0-1.28.84l-1.16 5.73a1.069 1.069 0 0 0 .3.97 1.107 1.107 0 0 0 .77.31.749.749 0 0 0 .21-.02l5.79-1.14a1.077 1.077 0 1 0-.43-2.11Zm-20.62-40.11a1.073 1.073 0 0 0-1.08 1.07v2.3a1.085 1.085 0 0 0 2.17 0v-2.3a1.082 1.082 0 0 0-1.09-1.07Zm20.83 20.62h-2.31a1.075 1.075 0 1 0 0 2.15h2.31a1.075 1.075 0 1 0 0-2.15Zm-36.33-9.02-2-1.15a1.091 1.091 0 0 0-1.48.4 1.064 1.064 0 0 0 .39 1.46l2.01 1.15a1.063 1.063 0 0 0 .54.14 1.081 1.081 0 0 0 .94-.53 1.07 1.07 0 0 0-.4-1.47Zm34.09 19.47-2.01-1.14a1.075 1.075 0 1 0-1.08 1.86l2 1.14a1.063 1.063 0 0 0 .54.14 1.081 1.081 0 0 0 .94-.53 1.067 1.067 0 0 0-.39-1.47Zm-7.63-28.16a1.088 1.088 0 0 0-1.48.39l-1.16 1.98a1.074 1.074 0 0 0 .94 1.61 1.093 1.093 0 0 0 .94-.53l1.16-1.99a1.059 1.059 0 0 0-.4-1.46Zm-19.68 33.72a1.091 1.091 0 0 0-1.48.4l-1.16 1.98a1.073 1.073 0 0 0 .4 1.47 1.174 1.174 0 0 0 .54.14 1.07 1.07 0 0 0 .94-.54l1.16-1.98a1.073 1.073 0 0 0-.4-1.47Zm27.7-25.78a1.091 1.091 0 0 0-1.48-.4l-2 1.15a1.07 1.07 0 0 0-.4 1.47 1.093 1.093 0 0 0 .94.53 1.063 1.063 0 0 0 .54-.14l2.01-1.15a1.056 1.056 0 0 0 .39-1.46Zm-34.08 19.47a1.079 1.079 0 0 0-1.48-.39l-2.01 1.14a1.072 1.072 0 0 0 .55 2 1.063 1.063 0 0 0 .54-.14l2-1.14a1.073 1.073 0 0 0 .4-1.47Zm6.78-25.04-1.16-1.98a1.088 1.088 0 0 0-1.48-.39 1.059 1.059 0 0 0-.4 1.46l1.16 1.99a1.1 1.1 0 0 0 .94.54 1.048 1.048 0 0 0 .54-.15 1.07 1.07 0 0 0 .4-1.47Zm19.68 33.73-1.16-1.98a1.091 1.091 0 0 0-1.48-.4 1.073 1.073 0 0 0-.4 1.47l1.16 1.98a1.07 1.07 0 0 0 .94.54 1.174 1.174 0 0 0 .54-.14 1.073 1.073 0 0 0 .4-1.47Z" transform="translate(-1078 -1269)" style="fill:#243f4d;fill-rule:evenodd"/></svg><svg viewBox="0 0 13.62 13.66" id="instagram" xmlns="http://www.w3.org/2000/svg"><path data-name="Union 2" d="M1133.34 1913.46a3.431 3.431 0 0 1-2.72-2.98 38.588 38.588 0 0 1 .13-7.67 3.483 3.483 0 0 1 2.98-2.65 27.381 27.381 0 0 1 3.42-.15c1.28 0 2.56.03 3.33.07a3.78 3.78 0 0 1 2.5 1.02 3.638 3.638 0 0 1 1.09 2.33 43.2 43.2 0 0 1-.15 7.35 3.485 3.485 0 0 1-3.02 2.73 32.586 32.586 0 0 1-3.76.15 23.5 23.5 0 0 1-3.8-.2Zm.73-12.12a2.349 2.349 0 0 0-2.18 2.06 45.652 45.652 0 0 0-.05 6.9 2.224 2.224 0 0 0 1.69 1.93 20.971 20.971 0 0 0 3.67.2c1.43 0 2.84-.05 3.37-.1a2.341 2.341 0 0 0 2.18-2.07 48.648 48.648 0 0 0 .09-6.71 2.3 2.3 0 0 0-2.05-2.18 30.906 30.906 0 0 0-3.41-.13c-1.36 0-2.72.04-3.31.1Zm-.25 5.5a3.517 3.517 0 0 1 3.53-3.5 3.459 3.459 0 0 1 3.47 3.5 3.53 3.53 0 0 1-3.53 3.5 3.466 3.466 0 0 1-3.47-3.5Zm1.23-.03a2.252 2.252 0 0 0 2.23 2.29h.02a2.284 2.284 0 0 0 2.28-2.24 2.237 2.237 0 0 0-2.22-2.29h-.02a2.293 2.293 0 0 0-2.29 2.24Zm5.12-3.61a.824.824 0 0 1 .82-.82h.01a.815.815 0 0 1 .81.82.826.826 0 0 1-.83.82.815.815 0 0 1-.81-.82Z" transform="translate(-1130.5 -1900)" style="fill-rule:evenodd"/></svg><svg viewBox="0 0 20 15" id="list-icon" xmlns="http://www.w3.org/2000/svg"><path d="M5.835 14.998v-4.171h14.159v4.171H5.835Zm0-9.585h14.159v4.172H5.835V5.413Zm0-5.413h14.159v4.172H5.835V0ZM.007 10.827h4.422v4.171H.007v-4.171Zm0-5.414h4.422v4.172H.007V5.413ZM.007 0h4.422v4.172H.007V0Z"/></svg><svg viewBox="0 0 37 33.968" id="mail" xmlns="http://www.w3.org/2000/svg"><path d="M942.975 650.918a.957.957 0 0 1-.669-.272.922.922 0 0 1-.278-.659L942 629.786v-.017a.927.927 0 0 1 .408-.754l5.322-3.616v-3.838a.94.94 0 0 1 .948-.932h6.067l5.217-3.546a.961.961 0 0 1 1.079 0l5.185 3.545h6.093a.94.94 0 0 1 .947.932v3.882l5.3 3.621a.933.933 0 0 1 .373.519.528.528 0 0 1 .034.184l.027 20.171a.941.941 0 0 1-.946.933l-35.077.048Zm2.773-1.867 29.478-.041-14.712-11.224Zm-1.828-.965 11.443-8.73-11.463-7.793Zm21.72-8.748 11.461 8.744-.023-16.565Zm-16.014-6.148 7.308 4.968 3-2.288a.959.959 0 0 1 1.148-.008l.013.008 2.977 2.272 7.3-4.993v-10.656h-21.746v10.7Zm-5.013-3.408 3.118 2.121v-4.241Zm28.654 2.072 3.028-2.071-3.028-2.07v4.141Zm-15.188-11.225h4.828l-2.407-1.645Zm-3.994 12.3a.933.933 0 1 1 0-1.865h12.83a.933.933 0 1 1 0 1.865h-12.83Zm0-4.847a.932.932 0 1 1 0-1.864h12.83a.932.932 0 1 1 0 1.864h-12.83Z" transform="translate(-942 -616.938)" style="fill-rule:evenodd"/></svg><svg viewBox="0 0 31 44" id="map" xmlns="http://www.w3.org/2000/svg"><path d="m558.6 655.809-6.584-2.917-5.674 2.51a1.651 1.651 0 0 1-1.864-.355 1.634 1.634 0 0 1-.313-1.862l4.994-10.516a1.1 1.1 0 1 1 1.972.987l-4.343 9.144 4.32-1.914a2.227 2.227 0 0 1 1.806 0l6.583 2.916h.011l6.585-2.917a2.223 2.223 0 0 1 1.8 0l4.32 1.914-4.342-9.145a1.093 1.093 0 0 1 .174-1.275 1.107 1.107 0 0 1 1.8.288l4.994 10.518a1.656 1.656 0 0 1-2.176 2.216L567 652.892l-6.594 2.917a2.23 2.23 0 0 1-1.806 0Zm-1.947-7.6-9.553-15.926c-.011-.02-.023-.041-.033-.062a13.944 13.944 0 1 1 26.39-6.327 13.691 13.691 0 0 1-1.528 6.327l-.034.062-9.548 15.927a3.326 3.326 0 0 1-5.697 0Zm2.683-34.012a11.783 11.783 0 0 0-11.586 11.625 11.521 11.521 0 0 0 1.269 5.366l9.529 15.9a1.114 1.114 0 0 0 1.91 0l9.528-15.9a11.665 11.665 0 0 0-2.231-13.625 11.7 11.7 0 0 0-8.247-3.368Zm-4.884 11.7a5.051 5.051 0 1 1 5.051 5.027 5.044 5.044 0 0 1-5.054-5.03Zm2.206 0a2.845 2.845 0 1 0 2.845-2.83 2.842 2.842 0 0 0-2.848 2.827Z" transform="translate(-544 -612)" style="fill-rule:evenodd"/></svg><svg viewBox="0 0 20.03 20.031" id="menu" xmlns="http://www.w3.org/2000/svg"><path d="M1813.15 67.881a2.146 2.146 0 1 1 2.14-2.145 2.145 2.145 0 0 1-2.14 2.145Zm0 7.869a2.146 2.146 0 1 1 2.14-2.147 2.146 2.146 0 0 1-2.14 2.147Zm0 7.868a2.146 2.146 0 1 1 2.14-2.146 2.145 2.145 0 0 1-2.14 2.146Zm7.86-15.737a2.146 2.146 0 1 1 2.15-2.145 2.143 2.143 0 0 1-2.15 2.145Zm0 7.869a2.146 2.146 0 1 1 2.15-2.147 2.144 2.144 0 0 1-2.15 2.147Zm0 7.868a2.146 2.146 0 1 1 2.15-2.146 2.143 2.143 0 0 1-2.15 2.146Zm7.87-15.737a2.146 2.146 0 1 1 2.15-2.145 2.143 2.143 0 0 1-2.15 2.145Zm0 7.869a2.146 2.146 0 1 1 2.15-2.147 2.144 2.144 0 0 1-2.15 2.147Zm0 7.868a2.146 2.146 0 1 1 2.15-2.146 2.143 2.143 0 0 1-2.15 2.146Z" transform="translate(-1811 -63.594)" style="fill:#fff;fill-rule:evenodd"/></svg><svg viewBox="0 0 53.56 52.25" id="payment" xmlns="http://www.w3.org/2000/svg"><path d="M1444.43 1042.32a.83.83 0 0 0-.84.83v8.27a2.164 2.164 0 0 1-2.16 2.16h-39.34a2.164 2.164 0 0 1-2.16-2.16v-11.92h27.29a.84.84 0 1 0 0-1.68h-27.29v-5.47h9.87a.828.828 0 0 0 .83-.83.837.837 0 0 0-.83-.84h-9.87v-2.88a2.166 2.166 0 0 1 2.16-2.17h25.13a.835.835 0 1 0 0-1.67h-25.13a3.839 3.839 0 0 0-3.83 3.84v23.62a3.837 3.837 0 0 0 3.83 3.83h39.34a3.837 3.837 0 0 0 3.83-3.83v-8.27a.828.828 0 0 0-.83-.83Zm-17.21-11.64H1413a.837.837 0 0 0-.83.84.828.828 0 0 0 .83.83h14.22a.837.837 0 0 0 .84-.83.845.845 0 0 0-.84-.84Zm-9.24 11.56h-14.27a.835.835 0 0 0 0 1.67h14.27a.835.835 0 1 0 0-1.67Zm-6.08 3.99h-8.19a.835.835 0 0 0 0 1.67h8.19a.835.835 0 0 0 0-1.67Zm34.63-13.61a.832.832 0 0 0 .84-.84v-4.77a3.038 3.038 0 0 0-2.39-2.97v-6.02a6.6 6.6 0 1 0-13.19 0v6.02a3.053 3.053 0 0 0-2.4 2.97v10.75a3.045 3.045 0 0 0 3.04 3.04h11.9a3.039 3.039 0 0 0 3.04-3.04v-3.19a.835.835 0 0 0-1.67 0v3.19a1.379 1.379 0 0 1-1.37 1.37h-11.9a1.379 1.379 0 0 1-1.37-1.37v-10.75a1.379 1.379 0 0 1 1.37-1.37h11.9a1.379 1.379 0 0 1 1.37 1.37v4.77a.83.83 0 0 0 .83.84Zm-3.23-8.65h-9.84v-5.95a4.92 4.92 0 1 1 9.84 0v5.95Zm-4.92 4.32a3.092 3.092 0 0 0-.83 6.07v2.04a.83.83 0 0 0 .83.84.839.839 0 0 0 .84-.84v-2.04a3.094 3.094 0 0 0-.84-6.07Zm0 4.52a1.425 1.425 0 1 1 1.42-1.43 1.428 1.428 0 0 1-1.42 1.43Z" transform="translate(-1398.25 -1011.41)" style="fill-rule:evenodd;fill:#a3bbc8"/><circle cx="43.75" cy="42.45" r="9.81" style="opacity:.34;fill:#a3bbc8"/></svg><svg viewBox="0 0 37 44" id="phone" xmlns="http://www.w3.org/2000/svg"><path d="M1355.44 650.922a5.06 5.06 0 1 1 5.06 5 5.034 5.034 0 0 1-5.06-5Zm1.97 0a3.085 3.085 0 1 0 3.09-3.045 3.074 3.074 0 0 0-3.09 3.045Zm11.47-11.336a5.06 5.06 0 1 1 5.06 5 5.033 5.033 0 0 1-5.06-5Zm1.98 0a3.085 3.085 0 1 0 3.08-3.046 3.066 3.066 0 0 0-3.08 3.046Zm-15.42 0a5.06 5.06 0 1 1 5.06 5 5.033 5.033 0 0 1-5.06-5Zm1.97 0a3.085 3.085 0 1 0 3.09-3.046 3.075 3.075 0 0 0-3.09 3.046Zm-15.41 0a5.06 5.06 0 1 1 5.06 5 5.033 5.033 0 0 1-5.06-5Zm1.97 0a3.085 3.085 0 1 0 3.09-3.046 3.075 3.075 0 0 0-3.09 3.046Zm24.91-11.337a5.06 5.06 0 1 1 5.06 5 5.034 5.034 0 0 1-5.06-5Zm1.98 0a3.085 3.085 0 1 0 3.08-3.045 3.064 3.064 0 0 0-3.08 3.045Zm-15.42 0a5.06 5.06 0 1 1 5.06 5 5.034 5.034 0 0 1-5.06-5Zm1.97 0a3.085 3.085 0 1 0 3.09-3.045 3.073 3.073 0 0 0-3.09 3.045Zm-15.41 0a5.06 5.06 0 1 1 5.06 5 5.034 5.034 0 0 1-5.06-5Zm1.97 0a3.085 3.085 0 1 0 3.09-3.045 3.073 3.073 0 0 0-3.09 3.045Zm24.91-11.336a5.06 5.06 0 1 1 5.06 5 5.033 5.033 0 0 1-5.06-5Zm1.98 0a3.085 3.085 0 1 0 3.08-3.046 3.066 3.066 0 0 0-3.08 3.046Zm-15.42 0a5.06 5.06 0 1 1 5.06 5 5.033 5.033 0 0 1-5.06-5Zm1.97 0a3.085 3.085 0 1 0 3.09-3.046 3.075 3.075 0 0 0-3.09 3.046Zm-15.41 0a5.06 5.06 0 1 1 5.06 5 5.033 5.033 0 0 1-5.06-5Zm1.97 0a3.085 3.085 0 1 0 3.09-3.046 3.075 3.075 0 0 0-3.09 3.046Z" transform="translate(-1342 -611.906)"/></svg><svg viewBox="0 0 72.375 51.38" id="products" xmlns="http://www.w3.org/2000/svg"><circle cx="55.5" cy="34.5" r="16.875" style="fill:#a3bbc8"/><path d="m829.52 1297.96-1.658-6.55a1 1 0 0 0 .793-.97v-1.06a4.192 4.192 0 0 0-4.208-4.16H816.9v-2.17a2.063 2.063 0 0 0-2.071-2.05h-38.483a2.063 2.063 0 0 0-2.071 2.05V1301a1 1 0 0 0 2 0v-17.95a.068.068 0 0 1 .066-.07h38.481a.068.068 0 0 1 .066.07V1301a1 1 0 0 0 2 0v-1.12h11.826a3.27 3.27 0 0 1 3.114 2.24h-3.116a1 1 0 0 0-1 .99v2.11a3.131 3.131 0 0 0 3.14 3.11H832v4.35h-2.621a6.372 6.372 0 0 0-12 0h-.479v-7.46a1 1 0 0 0-2 0v7.46h-20.8a6.372 6.372 0 0 0-12 0h-5.761a.066.066 0 0 1-.066-.06v-2.18h4.342a.99.99 0 1 0 0-1.98H771a.99.99 0 1 0 0 1.98h3.274v2.18a2.061 2.061 0 0 0 2.071 2.04h5.413v.07a6.347 6.347 0 0 0 12.693 0v-.07h22.584v.07a6.347 6.347 0 0 0 12.693 0v-.07H833a.994.994 0 0 0 1-.99v-10.56a5.235 5.235 0 0 0-4.48-5.15Zm-12.62-10.76h7.549a2.2 2.2 0 0 1 2.2 2.18v.07H816.9v-2.25Zm0 10.7v-6.47h8.9l1.637 6.47H816.9Zm-28.8 21.12a4.29 4.29 0 1 1 4.343-4.29 4.325 4.325 0 0 1-4.343 4.29Zm35.274 0a4.29 4.29 0 1 1 4.342-4.29 4.325 4.325 0 0 1-4.338 4.29Zm8.626-12.67h-1.14a1.137 1.137 0 0 1-1.136-1.13v-1.12H832v2.25Zm-43.892 6.33a2.05 2.05 0 1 0 2.071 2.05 2.063 2.063 0 0 0-2.079-2.05Zm35.274 0a2.05 2.05 0 1 0 2.071 2.05 2.063 2.063 0 0 0-2.075-2.05Zm-11.758-4.22h-14.969a.99.99 0 1 0 0 1.98h14.965a.99.99 0 1 0 0-1.98Zm-25.653-4.23H773.14a.99.99 0 1 0 0 1.98h12.827a.99.99 0 1 0 0-1.98Zm18.879-13.44a1.023 1.023 0 0 0-1.417 0l-8.911 8.81-4.636-4.58a1 1 0 0 0-1.417 0 .98.98 0 0 0 0 1.4l5.344 5.28a1.01 1.01 0 0 0 1.417 0l9.62-9.51a.98.98 0 0 0-.004-1.4Z" transform="translate(-770 -1281)" style="fill:#243f4d;fill-rule:evenodd"/></svg><svg viewBox="0 0 36.41 37.719" id="project" xmlns="http://www.w3.org/2000/svg"><path d="M993.975 958.96a1.984 1.984 0 0 1-1.975-1.991v-27.278a.915.915 0 0 1 .264-.643l7.476-7.542a.9.9 0 0 1 .638-.267h19.09a1.98 1.98 0 0 1 1.97 1.991v2.87a.9.9 0 1 1-1.8 0v-2.87a.172.172 0 0 0-.17-.17h-18.19v5.552a1.98 1.98 0 0 1-1.97 1.99h-5.5v26.367a.17.17 0 0 0 .168.17h25.5a.173.173 0 0 0 .17-.17v-13.9a.9.9 0 1 1 1.8 0v13.9a1.98 1.98 0 0 1-1.97 1.991h-25.5Zm1.108-30.178h4.227a.17.17 0 0 0 .168-.17v-4.265Zm3.976 23.708a.91.91 0 0 1 0-1.82H1003l1.39-5.066a.9.9 0 0 1 .23-.4l.02-.015h-5.581a.91.91 0 0 1 0-1.82h7.381l5.43-5.48h-12.811a.911.911 0 0 1 0-1.821h14.621l8.43-8.5a3.038 3.038 0 0 1 4.32 0l1.06 1.071a3.1 3.1 0 0 1 0 4.356L1010 950.632a.889.889 0 0 1-.39.234l-5.7 1.6c-.03.007-.23.029-.23.029h-4.621Zm5.921-2.218 2.65-.744-1.91-1.933Zm1.56-4.424 2.83 2.853 14.43-14.562-2.83-2.852Zm16.84-17-1.13 1.152 2.83 2.853 1.13-1.147a1.264 1.264 0 0 0 0-1.782l-1.06-1.071a1.225 1.225 0 0 0-.88-.369 1.265 1.265 0 0 0-.89.368Z" transform="translate(-992 -921.25)" style="fill:#a3bbc8;fill-rule:evenodd"/></svg><svg viewBox="0 0 43.12 39.094" id="revenue" xmlns="http://www.w3.org/2000/svg"><path d="M1227.87 929.648v-7.126a2.174 2.174 0 0 0-1.05-1.887 2.076 2.076 0 0 0-2.13-.021 48.669 48.669 0 0 1-20.7 6.383l-6.68.034a3.286 3.286 0 0 0-3.23 2.949h-1.36a2.749 2.749 0 0 0-2.71 2.774v6.1a2.748 2.748 0 0 0 2.71 2.774h1.36a3.32 3.32 0 0 0 1.91 2.664l4.85 13.723a2.118 2.118 0 0 0 1.98 1.428h4.86a2.1 2.1 0 0 0 1.73-.925 2.221 2.221 0 0 0 .25-1.986l-4.15-11.785a48.668 48.668 0 0 1 19.18 6.244 2.08 2.08 0 0 0 2.13-.021 2.174 2.174 0 0 0 1.05-1.887v-7.126a6.228 6.228 0 0 0 0-12.309Zm-33.82 9.836h-1.33a.622.622 0 0 1-.62-.634v-6.1a.623.623 0 0 1 .62-.634h1.33v7.364Zm2.78 2.844a1.2 1.2 0 0 1-.69-1.1v-10.854a1.185 1.185 0 0 1 1.17-1.2h5.67v13.262h-5.75a1.027 1.027 0 0 1-.4-.108Zm10.88 14.93a.037.037 0 0 1-.01.028c-.01.013-.01.013-.02.013h-4.86a.049.049 0 0 1-.03-.018l-4.48-12.708h4.92Zm18.08-8.179a.037.037 0 0 1-.03.041.04.04 0 0 1-.05 0 50.66 50.66 0 0 0-20.65-6.57v-13.5a50.692 50.692 0 0 0 20.65-6.571.04.04 0 0 1 .05 0 .037.037 0 0 1 .03.041v26.557Zm2.08-9.292v-7.974a4.089 4.089 0 0 1 0 7.974Z" transform="translate(-1190 -920.344)" style="fill:#a3bbc8;fill-rule:evenodd"/></svg><svg viewBox="0 0 15.28 15.281" id="search" xmlns="http://www.w3.org/2000/svg"><path d="M1547.7 72.076a.617.617 0 0 1 .75.485 2.583 2.583 0 0 0 .78 1.489 3.036 3.036 0 0 0 1.49.777.636.636 0 0 1 .49.743.649.649 0 0 1-.72.515 4.21 4.21 0 0 1-2.14-1.13 4.164 4.164 0 0 1-1.13-2.136.6.6 0 0 1 .48-.743Zm3.28-6.076a6.267 6.267 0 0 1 6.28 6.257 6.136 6.136 0 0 1-.57 2.6l2.34 2.036c1.7 1.746.74 3.266.29 3.717-.42.454-1.99 1.414-3.73-.292l-2.06-2.35A6.261 6.261 0 1 1 1550.98 66Zm5.55 13.517a1.352 1.352 0 0 0 1.88.226 1.313 1.313 0 0 0-.23-1.874l-2.16-1.88a6.236 6.236 0 0 1-1.37 1.34Zm-5.55-2.312a4.948 4.948 0 1 0-4.97-4.948 4.963 4.963 0 0 0 4.97 4.943Z" transform="translate(-1544.72 -66)" style="fill:#243f4d;fill-rule:evenodd"/></svg><svg viewBox="0 0 20 20" id="search-card" xmlns="http://www.w3.org/2000/svg"><path fill-rule="evenodd" d="M19.45 19.448a1.873 1.873 0 0 1-2.651 0l-4.588-4.588a8.819 8.819 0 0 0 2.651-2.651l4.588 4.589c.733.732.733 1.92 0 2.65ZM7.5 14.999A7.5 7.5 0 1 1 7.502-.003 7.5 7.5 0 0 1 7.5 15Zm0-13.126a5.632 5.632 0 0 0-5.625 5.626A5.63 5.63 0 0 0 7.5 13.123a5.63 5.63 0 0 0 5.625-5.624A5.632 5.632 0 0 0 7.5 1.873ZM4.375 7.499h-1.25A4.381 4.381 0 0 1 7.5 3.123v1.251a3.129 3.129 0 0 0-3.125 3.125Z"/></svg><svg viewBox="0 0 47.94 47.94" xml:space="preserve" id="star" xmlns="http://www.w3.org/2000/svg"><path style="fill:#ed8a19" d="m26.285 2.486 5.407 10.956a2.58 2.58 0 0 0 1.944 1.412l12.091 1.757c2.118.308 2.963 2.91 1.431 4.403l-8.749 8.528a2.582 2.582 0 0 0-.742 2.285l2.065 12.042c.362 2.109-1.852 3.717-3.746 2.722l-10.814-5.685a2.585 2.585 0 0 0-2.403 0l-10.814 5.685c-1.894.996-4.108-.613-3.746-2.722l2.065-12.042a2.582 2.582 0 0 0-.742-2.285L.783 21.014c-1.532-1.494-.687-4.096 1.431-4.403l12.091-1.757a2.58 2.58 0 0 0 1.944-1.412l5.407-10.956c.946-1.919 3.682-1.919 4.629 0z"/></svg><svg viewBox="0 0 50.875 53.13" id="support" xmlns="http://www.w3.org/2000/svg"><path d="M263.984 1044.59a9.815 9.815 0 1 1-9.8 9.82 9.811 9.811 0 0 1 9.8-9.82Z" transform="translate(-222.906 -1011.09)" style="opacity:.34;fill:#a3bbc8;fill-rule:evenodd"/><path d="M268.312 1022.67a.937.937 0 0 0-1.592.99 22.684 22.684 0 0 1-32.86 30.14.938.938 0 0 0-1.125 1.5 24.559 24.559 0 0 0 35.577-32.63Zm-23.03 21.94h-7.55l4.743-4.75a12.68 12.68 0 0 0 3.744-9.03 5.844 5.844 0 1 0-11.688 0 .938.938 0 0 0 1.875 0 3.969 3.969 0 1 1 7.938 0 10.836 10.836 0 0 1-3.195 7.71l-6.344 6.34a.949.949 0 0 0-.2 1.03.93.93 0 0 0 .866.57h9.813a.935.935 0 1 0-.002-1.87Zm15.039-6.44h-2.6v-1.52a.938.938 0 0 0-1.875 0v1.52h-5.286l5.286-8.85v4.21a.938.938 0 1 0 1.875 0v-7.62a.957.957 0 0 0-.456-.8.94.94 0 0 0-1.286.33l-7.875 13.19a.933.933 0 0 0-.011.94.951.951 0 0 0 .816.48h6.938v5.5a.938.938 0 0 0 1.875 0v-5.5h2.6a.94.94 0 0 0-.001-1.88Zm5.33-22.63a.938.938 0 1 0-1.875.04l.042 1.75a24.556 24.556 0 0 0-33.549 35.85.93.93 0 0 0 .656.27.92.92 0 0 0 .669-.28.942.942 0 0 0-.013-1.33 22.679 22.679 0 0 1 15.882-38.87 22.745 22.745 0 0 1 15.107 5.77l-1.843.04a.935.935 0 0 0 .022 1.87h.023l4.06-.09a.934.934 0 0 0 .915-.96Z" transform="translate(-222.906 -1011.09)" style="fill:#a3bbc8;fill-rule:evenodd"/></svg><svg viewBox="0 0 14.31 11.62" id="twitter" xmlns="http://www.w3.org/2000/svg"><path data-name="Path 2" d="M1109.69 1902.28c-.11.16-.21.3-.33.45a5.7 5.7 0 0 1-1.07 1.01l-.05.09a8.22 8.22 0 0 1-.07 1.31 8.818 8.818 0 0 1-.77 2.61 8.712 8.712 0 0 1-1.6 2.3 7.864 7.864 0 0 1-4.05 2.25 8.967 8.967 0 0 1-1.64.2h-.26a8.172 8.172 0 0 1-4.42-1.27l-.07-.04a5.322 5.322 0 0 0 .69.04 6.049 6.049 0 0 0 2.25-.44 5.834 5.834 0 0 0 1.4-.82 2.9 2.9 0 0 1-2.71-2.03 3.287 3.287 0 0 0 .54.05 2.82 2.82 0 0 0 .71-.09l.05-.02a2.9 2.9 0 0 1-2.32-2.9 2.914 2.914 0 0 0 1.31.35 2.914 2.914 0 0 1-1.2-1.78 2.877 2.877 0 0 1 .34-2.12 8.311 8.311 0 0 0 6.02 3.07c-.02-.12-.03-.22-.05-.33a2.8 2.8 0 0 1 .45-1.91 2.853 2.853 0 0 1 1.99-1.33 3.439 3.439 0 0 1 .54-.04 2.833 2.833 0 0 1 2.03.86.139.139 0 0 0 .1.05.09.09 0 0 0 .05-.01 5.547 5.547 0 0 0 1.71-.65l.04-.02a2.919 2.919 0 0 1-1.25 1.6 5.859 5.859 0 0 0 1.64-.44Z" transform="translate(-1095.38 -1900.88)" style="fill-rule:evenodd"/></svg><svg viewBox="0 0 14 14" id="user" xmlns="http://www.w3.org/2000/svg"><path fill-rule="evenodd" fill="#436372" d="M13.81 12.755a.42.42 0 0 1-.428.411H.549a.42.42 0 0 1-.428-.411c0-2.99 2.097-5.491 4.941-6.29C4.027 5.848 3.33 4.754 3.33 3.499 3.33 1.571 4.961.003 6.966.003c2.004 0 3.636 1.568 3.636 3.496 0 1.255-.697 2.349-1.733 2.966 2.844.799 4.941 3.3 4.941 6.29ZM9.746 3.499c0-1.474-1.247-2.673-2.78-2.673-1.533 0-2.781 1.199-2.781 2.673 0 1.475 1.248 2.674 2.781 2.674 1.533 0 2.78-1.199 2.78-2.674Zm-2.78 3.497c-3.159 0-5.754 2.363-5.974 5.347h11.947c-.22-2.984-2.815-5.347-5.973-5.347Z"/></svg></svg>